<?xml version="1.0" encoding="UTF-8"?>
<svg id="Layer_1" xmlns="http://www.w3.org/2000/svg" version="1.1" viewBox="0 0 4000 4000">
  <!-- Generator: Adobe Illustrator 29.6.1, SVG Export Plug-In . SVG Version: 2.1.1 Build 9)  -->
  <defs>
    <style>
      .st0, .st1 {
        display: none;
      }

      .st0, .st2 {
        fill-rule: evenodd;
      }

      .st1 {
        fill: #fff;
      }

      .st2 {
        fill: #0d8a6a;
      }
    </style>
  </defs>
  <rect class="st1" y="233.46" width="4000" height="4000"/>
  <path class="st2" d="M1152.49,2439.41l456.86-456.85,152.16,152.17,177.46-177.46-329.62-329.62c-189.18,189.18-378.35,378.35-567.53,567.53,25.96,86.97,63.44,168.97,110.67,244.23"/>
  <path class="st2" d="M1343.21,2662.57c64.21,55.99,135.65,103.91,212.72,142.19,296.64-296.64,593.29-593.28,889.92-889.92l446.09,446.09c41.81-82.3,72.55-171.16,90.29-264.62-178.8-178.79-357.58-357.6-536.38-536.38-367.55,367.55-735.09,735.09-1102.64,1102.64"/>
  <path class="st2" d="M1377.02,2324.42l-180.04,180.04c27.53,37.04,57.55,72.11,89.83,104.96l177.46-177.46c-32.26-33.02-61.5-69.02-87.25-107.54"/>
  <path class="st2" d="M1019.95,2107.5l231.91-231.91c17.33-398.22,345.65-715.75,748.14-715.75,352.91,0,648.79,244.11,728.02,572.69l267.67,267.67c2.74-30.13,4.13-60.65,4.13-91.49,0-552.18-447.63-999.82-999.82-999.82s-999.82,447.63-999.82,999.82c0,68.07,6.81,134.55,19.77,198.8"/>
  <path class="st2" d="M2668.34,2246.86c-123.53,243.7-376.43,410.71-668.34,410.71-57.88,0-114.23-6.57-168.34-19l-199.94,199.94c113.97,45.18,238.22,70.01,368.28,70.01,360.7,0,676.78-191,852.63-477.38l-184.29-184.28h0Z"/>
  <path class="st0" d="M3423.52,3061.12v311.89h-75.97v-187.05l-69.76,187.05h-61.31l-70.21-187.49v187.49h-75.97v-311.89h89.75l87.52,215.93,86.64-215.93h89.31ZM2831.71,3061.12v186.6c0,18.66,4.59,33.02,13.78,43.1,9.18,10.07,22.66,15.1,40.43,15.1s31.4-5.04,40.88-15.1c9.48-10.08,14.22-24.44,14.22-43.1v-186.6h75.98v186.16c0,27.84-5.92,51.39-17.77,70.64s-27.77,33.76-47.76,43.54c-19.99,9.77-42.28,14.66-66.86,14.66s-46.58-4.82-65.98-14.44c-19.4-9.62-34.73-24.14-45.98-43.53-11.26-19.41-16.89-43.02-16.89-70.87v-186.16h75.97-.02ZM2596.69,3376.13c-22.8,0-43.25-3.71-61.31-11.11-18.07-7.41-32.51-18.37-43.32-32.88-10.81-14.51-16.52-31.99-17.11-52.43h80.86c1.19,11.55,5.19,20.37,12,26.44,6.82,6.07,15.7,9.1,26.66,9.1s20.15-2.59,26.66-7.77c6.52-5.18,9.78-12.37,9.78-21.55,0-7.7-2.59-14.07-7.77-19.1-5.18-5.04-11.55-9.18-19.1-12.44-7.56-3.26-18.29-6.97-32.22-11.11-20.14-6.22-36.58-12.44-49.32-18.66s-23.69-15.4-32.88-27.54c-9.18-12.15-13.77-27.99-13.77-47.55,0-29.02,10.51-51.76,31.54-68.2s48.43-24.66,82.2-24.66,62.05,8.22,83.08,24.66,32.28,39.32,33.77,68.65h-82.2c-.59-10.07-4.29-18-11.11-23.77-6.81-5.77-15.55-8.67-26.21-8.67-9.19,0-16.59,2.45-22.22,7.33-5.63,4.89-8.44,11.92-8.44,21.1,0,10.07,4.74,17.93,14.22,23.55,9.48,5.63,24.29,11.7,44.43,18.22,20.14,6.81,36.51,13.33,49.1,19.54,12.59,6.23,23.48,15.25,32.66,27.1,9.19,11.85,13.78,27.1,13.78,45.77s-4.52,33.92-13.55,48.43-22.14,26.06-39.32,34.65c-17.18,8.59-37.46,12.89-60.87,12.89h-.02ZM2323.89,3200.63c14.52,0,25.33-3.41,32.44-10.22,7.11-6.81,10.66-16.44,10.66-28.88s-3.55-22.07-10.66-28.89c-7.11-6.81-17.92-10.22-32.44-10.22h-41.32v78.19h41.32v.02ZM2444.29,3161.53c0,18.06-4.14,34.57-12.44,49.53s-21.03,27.02-38.22,36.21c-17.18,9.18-38.5,13.77-63.98,13.77h-47.1v111.96h-75.97v-311.89h123.07c24.88,0,45.91,4.29,63.09,12.88,17.18,8.59,30.06,20.44,38.65,35.54,8.59,15.1,12.88,32.43,12.88,51.99h.02ZM2151.5,3061.12v311.89h-75.98v-311.89h75.98ZM2020.88,3061.12v311.89h-75.97v-187.05l-69.76,187.05h-61.31l-70.2-187.49v187.49h-75.97v-311.89h89.74l87.52,215.93,86.65-215.93h89.3,0ZM1503.28,3121.99v63.09h101.74v58.65h-101.74v68.42h115.07v60.86h-191.05v-311.89h191.05v60.86h-115.07ZM1213.59,3201.52h47.1c13.92,0,24.36-3.41,31.32-10.22s10.44-16.44,10.44-28.88-3.48-21.18-10.44-27.99-17.4-10.22-31.32-10.22h-47.1v77.31h0ZM1296.68,3373.01l-64.86-117.74h-18.22v117.74h-75.98v-311.89h127.52c24.59,0,45.54,4.29,62.87,12.88,17.33,8.59,30.29,20.36,38.88,35.32s12.88,31.62,12.88,49.98c0,20.73-5.85,39.25-17.55,55.54-11.7,16.28-28.95,27.83-51.76,34.65l71.97,123.51h-85.75ZM935.91,3306.81c24.88,0,44.8-8.3,59.76-24.88,14.96-16.59,22.43-38.5,22.43-65.75s-7.47-49.54-22.43-65.99c-14.96-16.43-34.88-24.66-59.76-24.66s-45.24,8.15-60.2,24.44-22.44,38.36-22.44,66.2,7.48,49.53,22.44,65.98c14.96,16.44,35.03,24.66,60.2,24.66ZM935.91,3376.13c-29.33,0-56.21-6.82-80.64-20.44-24.43-13.62-43.84-32.66-58.2-57.09-14.36-24.43-21.55-51.91-21.55-82.41s7.18-57.91,21.55-82.2c14.37-24.28,33.77-43.24,58.2-56.87,24.43-13.62,51.32-20.44,80.64-20.44s56.2,6.81,80.64,20.44c24.43,13.62,43.69,32.58,57.76,56.87,14.06,24.29,21.1,51.69,21.1,82.2s-7.1,57.98-21.32,82.41c-14.22,24.44-33.47,43.47-57.76,57.09-24.29,13.62-51.09,20.44-80.42,20.44ZM2882.04,3440.64h-14.1v114.77h18.52v-81l65.09,81h13.93v-114.77h-18.36v81.65l-65.09-81.65h.01ZM2729.9,3514.58h-48.53l24.26-54.6,24.26,54.6h.01ZM2747.61,3555.41h19.51l-51.48-114.77h-20l-51.49,114.77h19.51l10.83-24.1h62.14l10.99,24.1h-.01ZM2548.41,3455.23c-11.7-11.58-25.85-17.38-42.47-17.38-18.8,0-33.56,5.88-44.27,17.63s-16.07,26.32-16.07,43.7c0,7.87,1.2,15.22,3.6,22.05,2.41,6.83,5.96,13.01,10.66,18.53s11.01,9.89,18.94,13.12c7.93,3.22,16.97,4.83,27.14,4.83,17.93,0,32.95-6.67,45.09-20v-47.06h-49.03v16.4h31.98v23.28c-8.09,6.77-17.43,10.16-28.04,10.16-13.99,0-24.54-3.99-31.65-11.97-7.1-7.99-10.66-17.76-10.66-29.35-.11-12.57,3.67-23.12,11.31-31.64,7.66-8.53,17.98-12.79,30.99-12.79,5.47,0,11.01,1.06,16.64,3.2,5.63,2.13,10.41,5.16,14.34,9.1l11.48-11.81h.02ZM2246.74,3498.84c0-12.9,3.58-23.39,10.74-31.48,7.16-8.08,17.19-12.13,30.08-12.13,8.85.11,16.42,2.38,22.71,6.81,6.28,4.43,10.76,9.81,13.45,16.15,2.67,6.33,4.01,13.22,4.01,20.66,0,12.02-3.38,22.05-10.16,30.08-6.77,8.04-16.89,12.05-30.33,12.05-6.78,0-12.82-1.23-18.12-3.69s-9.54-5.74-12.71-9.84c-3.17-4.09-5.54-8.58-7.13-13.44-1.59-4.87-2.43-9.93-2.55-15.17h.01ZM2287.56,3438.5c-17.27,0-31.42,5.66-42.46,16.97s-16.56,25.72-16.56,43.21c0,7.76,1.23,15.11,3.69,22.06,2.46,6.94,6.01,13.2,10.66,18.77,4.64,5.57,10.79,10.02,18.44,13.36,7.65,3.33,16.29,5,25.91,5s18.25-1.62,25.9-4.84c7.66-3.23,13.8-7.62,18.45-13.2,4.65-5.58,8.2-11.89,10.65-18.94,2.46-7.05,3.69-14.51,3.69-22.38,0-16.61-5.08-30.74-15.24-42.39-10.17-11.64-24.54-17.51-43.12-17.63h0ZM2057.22,3440.64v114.77h78.86v-17.05h-60.5v-97.72h-18.36ZM1946.56,3456.71c-8.09-12.9-22.35-19.35-42.79-19.35-5.47,0-10.71.62-15.74,1.89-5.03,1.25-9.73,3.14-14.1,5.66s-7.87,5.96-10.49,10.33c-2.63,4.38-3.94,9.41-3.94,15.09,0,4.7.84,8.88,2.54,12.54,1.69,3.67,3.83,6.64,6.4,8.94,2.56,2.29,5.93,4.26,10.08,5.9,4.16,1.64,8.12,2.9,11.89,3.77s8.28,1.64,13.53,2.3c9.18,1.2,16.37,3.2,21.56,5.99,5.19,2.78,7.79,7.08,7.79,12.87,0,4.48-1.5,8.23-4.51,11.23-3.01,3.01-6.58,5.06-10.74,6.15-4.15,1.09-8.74,1.64-13.77,1.64-16.4,0-28.31-6.28-35.74-18.85l-13.77,9.18c9.4,17.38,25.85,26.07,49.35,26.07,8.53,0,16.2-1.12,23.04-3.36,6.83-2.25,12.62-6.09,17.38-11.56s7.14-12.3,7.14-20.5c0-6.12-1.23-11.4-3.69-15.82-2.46-4.43-6.03-7.92-10.73-10.49-4.7-2.56-9.46-4.51-14.26-5.82-4.81-1.31-10.61-2.46-17.38-3.44-9.07-1.31-15.99-3.11-20.74-5.41-4.75-2.29-7.13-5.95-7.13-10.99,0-5.35,2.46-9.59,7.37-12.7,4.92-3.11,11.31-4.67,19.19-4.67,6.01.11,11.56,1.28,16.64,3.52,5.09,2.24,8.99,5.33,11.72,9.26l13.93-9.34-.03-.03ZM1714.4,3457.36c7.1,0,12.52,2.11,16.23,6.31,3.72,4.21,5.57,9.16,5.57,14.84s-1.86,10.65-5.57,14.59c-3.72,3.94-9.18,5.9-16.4,5.9h-34.92v-41.65h35.09ZM1758.02,3552.13l-34.27-38.2c10.61-1.53,18.44-5.6,23.53-12.22,5.08-6.61,7.62-14.46,7.62-23.52,0-10.28-3.57-19.1-10.74-26.48-7.16-7.38-17.08-11.07-29.76-11.07-5.9,0-14.81-.03-26.73-.08-11.92-.06-20.82-.08-26.72-.08v114.94h18.36v-39.68h24.27l34.92,39.68h21.49l-1.97-3.28h0ZM1530.46,3440.8v67.06c0,10.71-2.95,18.99-8.86,24.84-5.9,5.84-13.55,8.49-22.95,7.95-8.74-.33-15.79-3.33-21.15-9.02-5.36-5.68-8.04-13.61-8.04-23.77v-67.06h-18.2v67.06c0,15.52,4.51,27.6,13.53,36.24,9.03,8.64,20.31,13.11,33.86,13.44,14.54.55,26.51-3.52,35.91-12.22,9.4-8.69,14.1-21.17,14.1-37.46v-67.06h-18.2ZM1246.82,3498.84c0-12.9,3.58-23.39,10.74-31.48,7.16-8.08,17.18-12.13,30.08-12.13,8.85.11,16.43,2.38,22.71,6.81,6.28,4.43,10.76,9.81,13.44,16.15,2.68,6.33,4.02,13.22,4.02,20.66,0,12.02-3.38,22.05-10.16,30.08-6.78,8.04-16.89,12.05-30.33,12.05-6.79,0-12.82-1.23-18.12-3.69s-9.53-5.74-12.7-9.84c-3.17-4.09-5.55-8.58-7.13-13.44-1.59-4.87-2.44-9.93-2.55-15.17h0ZM1287.64,3438.5c-17.27,0-31.42,5.66-42.46,16.97-11.04,11.31-16.56,25.72-16.56,43.21,0,7.76,1.23,15.11,3.69,22.06,2.46,6.94,6.01,13.2,10.66,18.77,4.64,5.57,10.79,10.02,18.44,13.36,7.65,3.33,16.29,5,25.91,5s18.25-1.62,25.9-4.84c7.66-3.23,13.8-7.62,18.45-13.2,4.65-5.58,8.2-11.89,10.66-18.94,2.46-7.05,3.69-14.51,3.69-22.38,0-16.61-5.08-30.74-15.24-42.39-10.16-11.64-24.54-17.51-43.12-17.63h-.02ZM1056.32,3440.64h-21.81v.82l44.27,66.89v47.05h18.36v-47.05l45.58-66.89v-.82h-22.14l-32.63,50.66-31.64-50.66h.01ZM652.45,3314.37h99.53v58.65h-175.5v-311.89h75.97v253.25h0Z"/>
</svg>